<?xml version="1.0" encoding="UTF-8"?>
<svg width="1200" height="360" viewBox="0 0 1200 360" fill="none" xmlns="http://www.w3.org/2000/svg">
  <!-- ROUTEMASTER logo concept (editable + animated). Replace the palette below with your brand colors. -->
  <defs>
    <!-- Palette placeholders (swap these to match the attached color set) -->
    <linearGradient id="rmGrad" x1="160" y1="60" x2="1040" y2="300" gradientUnits="userSpaceOnUse">
      <stop offset="0" stop-color="#4A7BD8"/>
      <stop offset="0.45" stop-color="#6EC1C3"/>
      <stop offset="0.75" stop-color="#BDB7FF"/>
      <stop offset="1" stop-color="#F7E35A"/>
    </linearGradient>
    <filter id="softShadow" x="-20%" y="-20%" width="140%" height="140%">
      <feDropShadow dx="0" dy="10" stdDeviation="10" flood-color="#000" flood-opacity="0.22"/>
    </filter>
    <filter id="glow" x="-40%" y="-40%" width="180%" height="180%">
      <feGaussianBlur stdDeviation="6" result="blur"/>
      <feColorMatrix in="blur" type="matrix" values="1 0 0 0 0  0 1 0 0 0  0 0 1 0 0  0 0 0 0.9 0"/>
      <feMerge>
        <feMergeNode/>
        <feMergeNode in="SourceGraphic"/>
      </feMerge>
    </filter>

    <!-- Wheel symbol: gamer-cartoon tire with chunky tread -->
    <g id="wheel">
      <!-- Outer tire -->
      <circle cx="0" cy="0" r="44" fill="#10131A"/>
      <circle cx="0" cy="0" r="44" fill="none" stroke="url(#rmGrad)" stroke-width="5" opacity="0.9"/>

      <!-- Tread blocks -->
      <g fill="#1C2230">
        <rect x="-5" y="-60" width="10" height="14" rx="3"/>
        <rect x="-5" y="46" width="10" height="14" rx="3"/>
        <rect x="-5" y="-60" width="10" height="14" rx="3" transform="rotate(30)"/>
        <rect x="-5" y="46" width="10" height="14" rx="3" transform="rotate(30)"/>
        <rect x="-5" y="-60" width="10" height="14" rx="3" transform="rotate(60)"/>
        <rect x="-5" y="46" width="10" height="14" rx="3" transform="rotate(60)"/>
        <rect x="-5" y="-60" width="10" height="14" rx="3" transform="rotate(90)"/>
        <rect x="-5" y="46" width="10" height="14" rx="3" transform="rotate(90)"/>
        <rect x="-5" y="-60" width="10" height="14" rx="3" transform="rotate(120)"/>
        <rect x="-5" y="46" width="10" height="14" rx="3" transform="rotate(120)"/>
        <rect x="-5" y="-60" width="10" height="14" rx="3" transform="rotate(150)"/>
        <rect x="-5" y="46" width="10" height="14" rx="3" transform="rotate(150)"/>
      </g>

      <!-- Rim -->
      <circle cx="0" cy="0" r="28" fill="#E8E7E3"/>
      <circle cx="0" cy="0" r="28" fill="none" stroke="#0D1016" stroke-width="4" opacity="0.55"/>

      <!-- Spokes -->
      <g stroke="#4A7BD8" stroke-width="4" stroke-linecap="round" opacity="0.9">
        <line x1="0" y1="-20" x2="0" y2="-6"/>
        <line x1="0" y1="20" x2="0" y2="6"/>
        <line x1="-20" y1="0" x2="-6" y2="0"/>
        <line x1="20" y1="0" x2="6" y2="0"/>
        <line x1="-14" y1="-14" x2="-4" y2="-4"/>
        <line x1="14" y1="14" x2="4" y2="4"/>
        <line x1="14" y1="-14" x2="4" y2="-4"/>
        <line x1="-14" y1="14" x2="-4" y2="4"/>
      </g>

      <!-- Hub -->
      <circle cx="0" cy="0" r="7" fill="#10131A"/>
      <circle cx="0" cy="0" r="3" fill="#F7E35A" filter="url(#glow)"/>
    </g>
  </defs>

  <!-- Background (transparent by default) -->

  <!-- Wordmark -->
  <g filter="url(#softShadow)">
    <text x="90" y="235" font-size="178" font-weight="900" letter-spacing="2" font-family="" fill="url(#rmGrad)">
      ROUTE<tspan fill="#E9F0FF">MASTER</tspan>
    </text>
    <!-- Dark stroke behind for gamer punch -->
    <text x="90" y="235" font-size="178" font-weight="900" letter-spacing="2" font-family="" fill="none" stroke="#0B0E14" stroke-width="14" opacity="0.55">
      ROUTE<tspan>MASTER</tspan>
    </text>
  </g>

  <!-- Wheels positioned over the R and M (tweak x/y if you change font) -->
  <g transform="translate(125 116)">
    <g>
      <use href="#wheel"/>
      <animateTransform attributeName="transform" attributeType="XML" type="rotate" from="0 0 0" to="360 0 0" dur="1.25s" repeatCount="indefinite"/>
    </g>
  </g>

  <g transform="translate(720 116)">
    <g>
      <use href="#wheel"/>
      <animateTransform attributeName="transform" attributeType="XML" type="rotate" from="0 0 0" to="360 0 0" dur="1.45s" repeatCount="indefinite"/>
    </g>
  </g>

  <!-- Small speed swoosh underline -->
  <path d="M150 280 C 330 320, 510 320, 690 280" stroke="url(#rmGrad)" stroke-width="10" stroke-linecap="round" opacity="0.9"/>
  <path d="M690 280 C 820 250, 940 250, 1060 280" stroke="#E8E7E3" stroke-width="6" stroke-linecap="round" opacity="0.85"/>
</svg>
